Year 1977, a September morning in Ankara... Yilmaz tries to rush his pregnant wife Neriman to the hospital and he crushes into Omer's car. This accident causes Omer's pregnant wife Inci, who was in the back seat, to have a pre-term labor. The babies are born on the same day. They see each other for the first time... 

IMDB rating: Ratings: 7.4/10 (from 2,825 users)

CAST:

Mehmet Günsür............Özgür
Belçim Bilgin............Deniz
Altan Erkekli............Yilmaz
Ayda Aksel...............Inci
Sebnem Sönmez............Neriman
Hüseyin Avni Danyal......Ömer
Berna Konur..............Zeynep
Umit Dincer..............Onur
Zafer Demircan...........Seyhan
Hakan Çimenser...........Orhan 
Batuhan Karacakaya 		
Pinar Çaglayan 		
Rayhan Asena Keskinci 		
Berkant Keskin 		
Yigit Özsener

General
*********
Format                           : Matroska
File size                        : 998 MiB
Duration                         : 1h 57mn
Overall bit rate                 : 1 188 Kbps
Encoded date                     : UTC 2011-10-09 12:50:37
Writing application              : mkvmerge v5.0.0 ('Die Wahre Liebe') built on Sep 25 2011 20:33:49
Writing library                  : libebml v1.2.2 + libmatroska v1.3.0

Video
ID                               : 1
Format                           : AVC
Format/Info                      : Advanced Video Codec
Format profile                   : Main@L3.0
Format settings, CABAC           : Yes
Format settings, ReFrames        : 4 frames
Muxing mode                      : Container profile=Unknown@3.0
Codec ID                         : V_MPEG4/ISO/AVC
Duration                         : 1h 57mn
Bit rate                         : 1 036 Kbps
Nominal bit rate                 : 1 059 Kbps
Width                            : 640 pixels
Height                           : 352 pixels
Display aspect ratio             : 16:9
Frame rate                       : 23.976 fps
Resolution                       : 8 bits
Colorimetry                      : 4:2:0
Scan type                        : Progressive
Bits/(Pixel*Frame)               : 0.192
Stream size                      : 869 MiB (87%)
Writing library                  : x264 core 112

Audio
*******
ID                               : 2
Format                           : AC-3
Format/Info                      : Audio Coding 3
Codec ID                         : A_AC3
Duration                         : 1h 57mn
Bit rate mode                    : Constant
Bit rate                         : 128 Kbps
Channel(s)                       : 2 channels
Channel positions                : Front: L R
Sampling rate                    : 48.0 KHz
Stream size                      : 107 MiB (11%)
Language                         : Turkish

Text(subtitles)
***************
ID                               : 3
Format                           : UTF-8
Codec ID                         : S_TEXT/UTF8
Codec ID/Info                    : UTF-8 Plain Text
Language                         : Romanian
Language                         : English

PLEASE SEED FOR AS LONG AS POSSIBLE!